<svg width="330" height="60" viewBox="0 0 330 60" fill="none" xmlns="http://www.w3.org/2000/svg">
<rect width="60" height="60" transform="translate(177.536)" fill="black"/>
<path fill-rule="evenodd" clip-rule="evenodd" d="M225.281 26.5957C215.612 20.8537 199.661 20.325 190.427 23.127C188.945 23.574 187.379 22.7399 186.929 21.2549C186.479 19.7729 187.316 18.2068 188.798 17.7568C199.397 14.5378 217.013 15.1586 228.146 21.7676C229.478 22.5596 229.916 24.2823 229.124 25.6143C228.338 26.9463 226.61 27.3877 225.281 26.5957ZM224.966 35.1006C224.288 36.2016 222.848 36.5461 221.747 35.8711C213.686 30.9151 201.392 29.481 191.855 32.376C190.616 32.748 189.311 32.0519 188.936 30.8159C188.564 29.5799 189.26 28.2744 190.496 27.8994C201.389 24.5934 214.934 26.1957 224.195 31.8867C225.296 32.5617 225.641 34.0026 224.966 35.1006ZM221.294 43.2686C220.754 44.1506 219.605 44.4296 218.723 43.8896C211.679 39.5846 202.811 38.613 192.368 40.998C191.363 41.229 190.358 40.5983 190.13 39.5903C189.899 38.5853 190.526 37.5845 191.537 37.3535C202.964 34.7405 212.765 35.8648 220.673 40.6978C221.555 41.2378 221.834 42.3866 221.294 43.2686ZM207.536 0C190.967 0 177.536 13.431 177.536 30C177.536 46.569 190.967 60 207.536 60C224.105 60 237.536 46.569 237.536 30C237.536 13.434 224.105 0 207.536 0Z" fill="#ECECDE"/>
<rect width="60" height="60" fill="black"/>
<path fill-rule="evenodd" clip-rule="evenodd" d="M17.609 0.368188C12.7253 0.588538 8.49244 1.78253 5.07448 5.18606C1.64458 8.60747 0.465424 12.8571 0.244525 17.69C0.107209 20.7064 -0.695742 43.4949 1.63265 49.4712C3.20282 53.503 6.29532 56.603 10.364 58.1782C12.2626 58.9167 14.4298 59.4166 17.609 59.5625C44.1914 60.7655 54.0452 60.1106 58.2005 49.4712C58.9379 47.5774 59.4453 45.412 59.5856 42.2407C60.8006 15.5901 59.3887 9.81344 54.7558 5.18606C51.0811 1.52048 46.7586 -0.974762 17.609 0.368188ZM17.8537 54.2027C14.9432 54.0716 13.3641 53.5867 12.3104 53.1787C9.65957 52.1484 7.66851 50.1656 6.64461 47.5303C4.87145 42.9893 5.45955 21.4216 5.61776 17.9317C5.77298 14.5132 6.46552 11.389 8.87749 8.97707C11.8626 5.99933 15.7193 4.53997 41.9794 5.72512C45.4063 5.87995 48.5377 6.57107 50.9557 8.97707C53.9408 11.9548 55.4214 15.8412 54.2154 42.0005C54.0841 44.9038 53.5975 46.4792 53.1886 47.5303C50.487 54.4535 44.272 55.4146 17.8537 54.2027ZM42.269 14.0689C42.269 16.0401 43.872 17.6431 45.8512 17.6431C47.8303 17.6431 49.4363 16.0401 49.4363 14.0689C49.4363 12.0976 47.8303 10.4961 45.8512 10.4961C43.872 10.4961 42.269 12.0976 42.269 14.0689ZM14.588 29.9639C14.588 38.4087 21.4508 45.2554 29.9166 45.2554C38.3824 45.2554 45.2452 38.4087 45.2452 29.9639C45.2452 21.5191 38.3824 14.6768 29.9166 14.6768C21.4508 14.6768 14.588 21.5191 14.588 29.9639ZM19.9672 29.9639C19.9672 24.4849 24.421 20.0396 29.9166 20.0396C35.4122 20.0396 39.866 24.4849 39.866 29.9639C39.866 35.4459 35.4122 39.8926 29.9166 39.8926C24.421 39.8926 19.9672 35.4459 19.9672 29.9639Z" fill="#ECECDE"/>
<rect width="60" height="60" transform="translate(89.5357)" fill="black"/>
<path fill-rule="evenodd" clip-rule="evenodd" d="M113.501 37.7583V20.9229C119.478 23.7352 124.107 26.4519 129.581 29.3809C125.066 31.885 119.478 34.6947 113.501 37.7583ZM146.809 12.5499C145.778 11.1916 144.021 10.1343 142.15 9.78423C136.652 8.74008 102.349 8.73711 96.8532 9.78423C95.3531 10.0654 94.0172 10.7452 92.8697 11.8013C88.0346 16.289 89.5497 40.3551 90.7152 44.2535C91.2053 45.9408 91.8388 47.1578 92.6367 47.9566C93.6647 49.0127 95.0721 49.7399 96.6888 50.066C101.216 51.0024 124.54 51.526 142.054 50.2066C143.668 49.9254 145.096 49.1748 146.223 48.0738C150.694 43.604 150.389 18.1864 146.809 12.5499Z" fill="#ECECDE"/>
<rect width="60" height="60" transform="translate(270)" fill="black"/>
<path d="M330.001 15.3104C330.001 15.2379 330.004 15.1529 330.004 15.0679C330.004 13.2104 329.784 11.4054 329.371 9.67793L329.404 9.83543C328.624 6.60793 326.654 3.93793 323.996 2.25793L323.946 2.22793C322.606 1.35293 321.026 0.71793 319.329 0.42043L319.254 0.41043C318.096 0.20043 316.746 0.0654297 315.371 0.0354297H315.344C315.244 0.0354297 315.136 0.0104297 315.034 0.00292969H284.971C284.591 0.0279297 284.221 0.0454297 283.834 0.0679297C281.856 0.10793 279.979 0.47043 278.229 1.10543L278.351 1.06793C275.086 2.32043 272.534 4.80543 271.219 7.93793L271.189 8.02043C270.764 9.04293 270.446 10.2329 270.289 11.4704L270.281 11.5404C270.154 12.3979 270.064 13.4179 270.031 14.4529V14.4929C270.031 14.5729 270.014 14.6479 270.006 14.7254V45.2854C270.031 45.6354 270.049 45.9929 270.074 46.3454C270.124 48.4979 270.579 50.5279 271.364 52.3854L271.324 52.2779C272.846 55.6879 275.759 58.2454 279.321 59.2579L279.409 59.2804C280.351 59.5579 281.451 59.7604 282.586 59.8479L282.641 59.8504C284.029 59.9829 285.416 60.0004 286.809 60.0004H314.379C315.764 60.0004 317.126 59.9079 318.461 59.7329L318.304 59.7504C320.464 59.5104 322.416 58.7879 324.106 57.6929L324.054 57.7254C326.116 56.3779 327.729 54.5004 328.721 52.2854L328.754 52.2054C329.169 51.2479 329.491 50.1329 329.669 48.9729L329.679 48.8954C329.889 47.5479 330.009 45.9929 330.009 44.4104C330.009 44.1954 330.006 43.9829 330.001 43.7704V43.8029C330.001 34.3029 330.001 24.8079 330.001 15.3179V15.3104ZM313.941 25.2854V39.5654C313.944 39.6279 313.944 39.7004 313.944 39.7729C313.944 40.7904 313.719 41.7579 313.314 42.6229L313.331 42.5804C312.649 43.9854 311.404 45.0279 309.899 45.4229L309.861 45.4304C309.071 45.6654 308.156 45.8204 307.211 45.8629H307.186C307.114 45.8679 307.031 45.8679 306.946 45.8679C304.364 45.8679 302.269 43.7729 302.269 41.1904C302.269 39.3379 303.346 37.7354 304.909 36.9779L304.936 36.9654C305.669 36.6154 306.524 36.3354 307.414 36.1654L307.481 36.1554C308.426 35.9504 309.376 35.7729 310.316 35.5554C310.976 35.4429 311.486 34.9254 311.591 34.2729V34.2654C311.624 34.1229 311.641 33.9604 311.641 33.7929C311.641 33.7879 311.641 33.7854 311.641 33.7804C311.641 29.2421 311.641 24.7063 311.641 20.1729C311.639 20.0079 311.616 19.8479 311.574 19.6979L311.576 19.7104C311.511 19.3754 311.219 19.1229 310.869 19.1229C310.854 19.1229 310.839 19.1229 310.824 19.1254C310.379 19.1579 309.976 19.2154 309.579 19.3004L309.639 19.2904C307.739 19.6654 305.839 20.0454 303.939 20.4304L294.689 22.3004C294.649 22.3004 294.609 22.3254 294.569 22.3329C294.014 22.4079 293.589 22.8804 293.589 23.4504C293.589 23.4879 293.591 23.5254 293.594 23.5629V23.5579V23.8829C293.594 30.3829 293.594 36.8838 293.594 43.3854C293.596 43.4554 293.596 43.5404 293.596 43.6229C293.596 44.6429 293.399 45.6154 293.036 46.5029L293.054 46.4504C292.394 47.9854 291.074 49.1304 289.464 49.5379L289.426 49.5454C288.629 49.7854 287.709 49.9404 286.759 49.9754H286.739C286.661 49.9804 286.571 49.9829 286.479 49.9829C284.196 49.9829 282.304 48.3204 281.941 46.1429L281.939 46.1154C281.889 45.8604 281.861 45.5704 281.861 45.2704C281.861 43.3079 283.074 41.6254 284.791 40.9379L284.824 40.9279C285.611 40.6104 286.541 40.3429 287.504 40.1654L287.594 40.1529C288.311 40.0029 289.031 39.8629 289.744 39.7104C290.596 39.5854 291.244 38.8579 291.244 37.9779C291.244 37.9604 291.244 37.9404 291.244 37.9229V37.9254V37.5504C291.244 30.1504 291.244 22.7479 291.244 15.3429C291.244 15.3379 291.244 15.3329 291.244 15.3254C291.244 15.0029 291.281 14.6904 291.354 14.3904L291.349 14.4179C291.514 13.7579 292.041 13.2529 292.704 13.1254L292.714 13.1229C293.351 12.9579 294.001 12.8429 294.649 12.7104C296.481 12.3354 298.314 11.9604 300.149 11.6004L305.824 10.4504C307.499 10.1154 309.174 9.77543 310.849 9.45043C311.301 9.34543 311.866 9.25293 312.441 9.19043L312.509 9.18543C312.554 9.18043 312.609 9.17543 312.661 9.17543C313.336 9.17543 313.884 9.71793 313.894 10.3879C313.914 10.5554 313.924 10.7479 313.924 10.9429C313.924 15.7179 313.924 20.4971 313.924 25.2754L313.941 25.2854Z" fill="#ECECDE"/>
</svg>
